<svg version="1.1" xmlns="http://www.w3.org/2000/svg" xmlns:xlink="http://www.w3.org/1999/xlink" width="95.75" height="95.75" viewBox="0,0,95.75,95.75"><g transform="translate(-192.125,-132.125)"><g data-paper-data="{&quot;isPaintingLayer&quot;:true}" fill-rule="nonzero" stroke="#ff0000" stroke-linejoin="miter" stroke-miterlimit="10" stroke-dasharray="" stroke-dashoffset="0" style="mix-blend-mode: normal"><path d="M282.875,180c0,23.67921 -19.19579,42.875 -42.875,42.875c-23.67921,0 -42.875,-19.19579 -42.875,-42.875c0,-23.67921 19.19579,-42.875 42.875,-42.875c23.67921,0 42.875,19.19579 42.875,42.875z" fill="#000000" stroke-width="10" stroke-linecap="butt"/><path d="M209.92581,149.01799l54.90468,61.07374" fill="none" stroke-width="2" stroke-linecap="round"/><path d="M265.75585,149.32644l-56.7554,60.45684" fill="none" stroke-width="2" stroke-linecap="round"/><path d="M237.37815,138.22212l0.30845,82.97392" fill="none" stroke-width="2" stroke-linecap="round"/><path d="M283.02923,183.56475l-84.82464,-4.93525" fill="none" stroke-width="2" stroke-linecap="round"/><path d="M220.72167,140.68975l32.38759,75.57104" fill="none" stroke-width="2" stroke-linecap="round"/><path d="M277.24573,164.11466l-78.65558,32.07914" fill="none" stroke-width="2" stroke-linecap="round"/><path d="M198.59015,163.1893l78.03867,35.16367" fill="none" stroke-width="2" stroke-linecap="round"/><path d="M258.12163,138.20459l-37.63129,76.80486" fill="none" stroke-width="2" stroke-linecap="round"/></g></g></svg>