<svg version="1.1" xmlns="http://www.w3.org/2000/svg" xmlns:xlink="http://www.w3.org/1999/xlink" width="95.75" height="95.75" viewBox="0,0,95.75,95.75"><g transform="translate(-192.125,-132.125)"><g data-paper-data="{&quot;isPaintingLayer&quot;:true}" fill-rule="nonzero" stroke="#000000" stroke-linejoin="miter" stroke-miterlimit="10" stroke-dasharray="" stroke-dashoffset="0" style="mix-blend-mode: normal"><path d="M282.875,180c0,23.67921 -19.19579,42.875 -42.875,42.875c-23.67921,0 -42.875,-19.19579 -42.875,-42.875c0,-23.67921 19.19579,-42.875 42.875,-42.875c23.67921,0 42.875,19.19579 42.875,42.875z" fill="#ff0000" stroke-width="10" stroke-linecap="butt"/><path d="M212.68496,151.40332l54.79028,57.03316" fill="none" stroke-width="2" stroke-linecap="round"/><path d="M275.16511,152.68496l-69.8496,56.07193" fill="none" stroke-width="2" stroke-linecap="round"/><path d="M242.62185,136.31583l-4.31835,82.35701" fill="none" stroke-width="2" stroke-linecap="round"/><path d="M198.20459,177.03166l86.36691,8.01978" fill="none" stroke-width="2" stroke-linecap="round"/><path d="M225.65692,140.63418l30.84532,78.65558" fill="none" stroke-width="2" stroke-linecap="round"/><path d="M261.12905,142.79335l-39.79047,69.71043" fill="none" stroke-width="2" stroke-linecap="round"/><path d="M204.99056,162.2259l69.71043,36.39748" fill="none" stroke-width="2" stroke-linecap="round"/><path d="M199.74685,190.29515l82.35701,-19.74101" fill="none" stroke-width="2" stroke-linecap="round"/><path d="M216.71178,146.80324l19.74101,-11.72122" fill="none" stroke-width="2" stroke-linecap="round"/></g></g></svg>